<?xml version="1.0" encoding="UTF-8" standalone="no"?>
<!DOCTYPE svg PUBLIC "-//W3C//DTD SVG 1.1//EN" "http://www.w3.org/Graphics/SVG/1.1/DTD/svg11.dtd">
<svg width="100%" height="100%" viewBox="0 0 422 92" version="1.1" xmlns="http://www.w3.org/2000/svg" xmlns:xlink="http://www.w3.org/1999/xlink" xml:space="preserve" xmlns:serif="http://www.serif.com/" style="fill-rule:evenodd;clip-rule:evenodd;stroke-linejoin:round;stroke-miterlimit:2;">
    <g>
        <path d="M121.1,24.5L121.1,32.4C117.3,29.2 113.3,27.6 109.2,27.6C104.7,27.6 100.8,29.2 97.7,32.5C94.6,35.7 93,39.7 93,44.4C93,49 94.6,52.9 97.7,56.1C100.8,59.3 104.7,60.9 109.2,60.9C111.5,60.9 113.5,60.5 115.2,59.8C116.1,59.4 117.1,58.9 118,58.3C119,57.7 120,56.9 121.1,56L121.1,64C117.3,66.2 113.3,67.2 109.1,67.2C102.8,67.2 97.4,65 93,60.6C88.6,56.2 86.3,50.8 86.3,44.5C86.3,38.9 88.2,33.9 91.9,29.5C96.5,24.1 102.4,21.4 109.6,21.4C113.5,21.2 117.4,22.3 121.1,24.5Z" style="fill:rgb(0,6,69);fill-rule:nonzero;"/>
        <path d="M124.6,52.1C124.6,48.1 126,44.7 128.9,41.8C131.8,39 135.3,37.6 139.4,37.6C143.6,37.6 147.1,39 150,41.9C152.9,44.7 154.3,48.2 154.3,52.4C154.3,56.6 152.9,60.1 150,62.9C147.1,65.7 143.6,67.1 139.3,67.1C135.1,67.1 131.6,65.7 128.8,62.8C126,59.9 124.6,56.4 124.6,52.1ZM131.2,52.2C131.2,55 131.9,57.2 133.4,58.8C134.9,60.4 136.9,61.3 139.4,61.3C141.9,61.3 143.9,60.5 145.4,58.9C146.9,57.3 147.7,55.1 147.7,52.4C147.7,49.7 146.9,47.5 145.4,45.9C143.9,44.3 141.9,43.4 139.4,43.4C136.9,43.4 135,44.2 133.4,45.9C131.9,47.5 131.2,49.6 131.2,52.2Z" style="fill:rgb(0,6,69);fill-rule:nonzero;"/>
        <path d="M159.2,38.4L165.7,38.4L165.7,40.9C166.9,39.7 167.9,38.8 168.8,38.4C169.7,37.9 170.8,37.7 172.1,37.7C173.8,37.7 175.6,38.3 177.4,39.4L174.5,45.3C173.3,44.4 172.1,44 170.9,44C167.4,44 165.6,46.6 165.6,51.9L165.6,66.3L159.2,66.3L159.2,38.4Z" style="fill:rgb(0,6,69);fill-rule:nonzero;"/>
        <path d="M181.4,38.4L187.9,38.4L187.9,40.9C189.1,39.7 190.1,38.8 191,38.4C191.9,37.9 193,37.7 194.3,37.7C196,37.7 197.8,38.3 199.6,39.4L196.7,45.3C195.5,44.4 194.3,44 193.1,44C189.6,44 187.8,46.6 187.8,51.9L187.8,66.3L181.4,66.3L181.4,38.4Z" style="fill:rgb(0,6,69);fill-rule:nonzero;"/>
        <path d="M227.3,53.8L207.4,53.8C207.6,56.1 208.3,57.9 209.6,59.3C210.9,60.6 212.6,61.3 214.7,61.3C216.3,61.3 217.6,60.9 218.7,60.2C219.7,59.4 220.9,58 222.2,56L227.6,59C226.8,60.4 225.9,61.7 224.9,62.7C224,63.7 223,64.6 221.9,65.2C220.8,65.9 219.7,66.3 218.4,66.6C217.2,66.9 215.8,67.1 214.4,67.1C210.2,67.1 206.9,65.8 204.4,63.1C201.9,60.4 200.6,56.9 200.6,52.4C200.6,48 201.8,44.4 204.3,41.7C206.8,39 210,37.7 214.1,37.7C218.2,37.7 221.4,39 223.8,41.6C226.2,44.2 227.3,47.8 227.3,52.4L227.3,53.8ZM220.7,48.6C219.8,45.2 217.6,43.5 214.2,43.5C213.4,43.5 212.7,43.6 212,43.9C211.3,44.1 210.7,44.5 210.1,44.9C209.5,45.3 209.1,45.9 208.7,46.5C208.3,47.1 208,47.8 207.8,48.6L220.7,48.6Z" style="fill:rgb(0,6,69);fill-rule:nonzero;"/>
        <path d="M254.5,39.6L254.5,48.1C253,46.3 251.7,45.1 250.6,44.4C249.5,43.7 248.1,43.4 246.6,43.4C244.2,43.4 242.2,44.2 240.6,45.9C239,47.6 238.2,49.7 238.2,52.3C238.2,54.9 239,57.1 240.5,58.7C242.1,60.4 244.1,61.2 246.5,61.2C248,61.2 249.4,60.9 250.6,60.2C251.7,59.6 253.1,58.3 254.6,56.4L254.6,65C252,66.4 249.4,67 246.8,67C242.5,67 238.9,65.6 236,62.8C233.1,60 231.7,56.5 231.7,52.4C231.7,48.2 233.2,44.7 236.1,41.9C239,39 242.6,37.6 246.9,37.6C249.5,37.6 252.1,38.3 254.5,39.6Z" style="fill:rgb(0,6,69);fill-rule:nonzero;"/>
        <path d="M268.8,44.4L268.8,66.2L262.4,66.2L262.4,44.4L259.7,44.4L259.7,38.4L262.4,38.4L262.4,28.2L268.8,28.2L268.8,38.4L273.8,38.4L273.8,44.4L268.8,44.4Z" style="fill:rgb(0,6,69);fill-rule:nonzero;"/>
        <path d="M325.7,24.5L325.7,32.4C321.9,29.2 317.9,27.6 313.8,27.6C309.3,27.6 305.4,29.2 302.3,32.5C299.2,35.7 297.6,39.7 297.6,44.4C297.6,49 299.2,52.9 302.3,56.1C305.4,59.3 309.3,60.9 313.8,60.9C316.1,60.9 318.1,60.5 319.8,59.8C320.7,59.4 321.7,58.9 322.6,58.3C323.6,57.7 324.6,56.9 325.7,56L325.7,64C321.9,66.2 317.9,67.2 313.7,67.2C307.4,67.2 302,65 297.6,60.6C293.2,56.2 290.9,50.8 290.9,44.5C290.9,38.9 292.8,33.9 296.5,29.5C301.1,24.1 307,21.4 314.2,21.4C318.2,21.2 322,22.3 325.7,24.5Z" style="fill:rgb(0,6,69);fill-rule:nonzero;"/>
        <path d="M351,38.4L357.5,38.4L357.5,66.2L351,66.2L351,63.3C348.4,65.8 345.5,67 342.5,67C338.7,67 335.5,65.6 333,62.8C330.5,60 329.3,56.4 329.3,52.2C329.3,48 330.5,44.6 333,41.8C335.5,39 338.6,37.6 342.4,37.6C345.6,37.6 348.5,38.9 351.1,41.6L351.1,38.4L351,38.4ZM335.8,52.2C335.8,54.9 336.5,57 337.9,58.7C339.4,60.4 341.2,61.2 343.4,61.2C345.8,61.2 347.7,60.4 349.2,58.7C350.7,57 351.4,54.9 351.4,52.2C351.4,49.6 350.7,47.4 349.2,45.7C347.7,44 345.8,43.2 343.5,43.2C341.3,43.2 339.4,44 338,45.7C336.5,47.6 335.8,49.7 335.8,52.2Z" style="fill:rgb(0,6,69);fill-rule:nonzero;"/>
        <path d="M363.2,38.4L369.7,38.4L369.7,40.9C370.9,39.7 371.9,38.8 372.8,38.4C373.7,37.9 374.8,37.7 376.1,37.7C377.8,37.7 379.6,38.3 381.4,39.4L378.5,45.3C377.3,44.4 376.1,44 374.9,44C371.4,44 369.6,46.6 369.6,51.9L369.6,66.3L363.2,66.3L363.2,38.4Z" style="fill:rgb(0,6,69);fill-rule:nonzero;"/>
        <path d="M408.2,53.8L388.3,53.8C388.5,56.1 389.2,57.9 390.5,59.3C391.8,60.6 393.5,61.3 395.6,61.3C397.2,61.3 398.5,60.9 399.6,60.2C400.6,59.4 401.8,58 403.1,56L408.5,59C407.7,60.4 406.8,61.7 405.8,62.7C404.9,63.7 403.9,64.6 402.8,65.2C401.7,65.9 400.6,66.3 399.3,66.6C398,66.9 396.7,67.1 395.3,67.1C391.1,67.1 387.8,65.8 385.3,63.1C382.8,60.4 381.5,56.9 381.5,52.4C381.5,48 382.7,44.4 385.2,41.7C387.7,39 390.9,37.7 395,37.7C399.1,37.7 402.3,39 404.7,41.6C407.1,44.2 408.2,47.8 408.2,52.4L408.2,53.8ZM401.6,48.6C400.7,45.2 398.5,43.5 395.1,43.5C394.3,43.5 393.6,43.6 392.9,43.9C392.2,44.1 391.6,44.5 391,44.9C390.4,45.3 390,45.9 389.6,46.5C389.2,47.1 388.9,47.8 388.7,48.6L401.6,48.6Z" style="fill:rgb(0,6,69);fill-rule:nonzero;"/>
    </g>
    <circle cx="46.9" cy="43.8" r="13.4" style="fill:rgb(36,132,186);"/>
    <g>
        <g>
            <path d="M47,66.2C42.1,66.2 37.5,64.6 33.8,61.9C31.3,64.4 29.5,67.7 28.9,71.3C34.1,74.8 40.3,76.8 47.1,76.8C53.9,76.8 60,74.8 65.3,71.3C64.7,67.7 62.9,64.4 60.4,61.9C56.5,64.5 52,66.2 47,66.2Z" style="fill:rgb(36,132,186);fill-rule:nonzero;"/>
            <path d="M46.9,10.9C28.7,10.9 14,25.6 14,43.8C14,55.2 19.9,65.3 28.7,71.2C29.3,67.6 31.1,64.3 33.6,61.8C28.1,57.7 24.5,51.2 24.5,43.8C24.5,31.5 34.5,21.4 46.9,21.4C53.7,21.4 59.9,24.5 64,29.3L71.5,21.8C65.4,15.2 56.7,10.9 46.9,10.9Z" style="fill:rgb(0,6,69);fill-rule:nonzero;"/>
        </g>
        <path d="M60.2,61.9C62.7,64.4 64.5,67.7 65.1,71.3C67.6,69.7 69.8,67.7 71.8,65.5L64.3,58C63.1,59.5 61.7,60.8 60.2,61.9Z" style="fill:rgb(0,6,69);fill-rule:nonzero;"/>
    </g>
</svg>
