<?xml version="1.0" encoding="utf-8"?>
<!-- Generator: Adobe Illustrator 22.1.0, SVG Export Plug-In . SVG Version: 6.00 Build 0)  -->
<svg version="1.1" id="Слой_1" xmlns="http://www.w3.org/2000/svg" xmlns:xlink="http://www.w3.org/1999/xlink" x="0px" y="0px"
	 viewBox="0 0 224 214" style="enable-background:new 0 0 224 214;" xml:space="preserve">
<style type="text/css">
	.st0{fill:url(#SVGID_1_);}
	.st1{fill:url(#SVGID_2_);}
	.st2{fill:url(#SVGID_3_);}
</style>
<linearGradient id="SVGID_1_" gradientUnits="userSpaceOnUse" x1="54.3989" y1="96.1711" x2="171.2073" y2="96.1711">
	<stop  offset="0" style="stop-color:#538C94"/>
	<stop  offset="1" style="stop-color:#A5BBF3"/>
</linearGradient>
<path class="st0" d="M103.9,130.2c-10-5.7-16.7-16.4-16.7-28.7c0-18.3,14.8-33.1,33.1-33.1c11.8,0,22.1,6.2,28,15.4
	c4.6-10.5,12.7-19.1,22.9-24.1c-12.1-14.7-30.4-24.1-50.9-24.1c-36.4,0-65.9,29.5-65.9,65.9c0,23.2,12,43.6,30.1,55.3
	c0-0.5,0.1-1,0.1-1.6C86.2,142.6,96.6,134.4,103.9,130.2z"/>
<linearGradient id="SVGID_2_" gradientUnits="userSpaceOnUse" x1="99.9504" y1="101.4551" x2="140.6023" y2="101.4551">
	<stop  offset="0.4049" style="stop-color:#3C5580"/>
	<stop  offset="0.5906" style="stop-color:#3E5A80"/>
	<stop  offset="0.8045" style="stop-color:#456880"/>
	<stop  offset="1" style="stop-color:#4E7B81"/>
</linearGradient>
<circle class="st1" cx="120.3" cy="101.5" r="20.3"/>
<linearGradient id="SVGID_3_" gradientUnits="userSpaceOnUse" x1="85.0208" y1="144.0237" x2="169.7422" y2="144.0237">
	<stop  offset="0.4049" style="stop-color:#3C5580"/>
	<stop  offset="0.5906" style="stop-color:#3E5A80"/>
	<stop  offset="0.8045" style="stop-color:#456880"/>
	<stop  offset="1" style="stop-color:#4E7B81"/>
</linearGradient>
<path class="st2" d="M169.7,145.7c-9.9-5.5-17.7-14.4-21.8-25.2c-6,8.6-15.9,14.2-27.1,14.2c-6,0-11.6-1.6-16.4-4.4
	c-7.2,4.3-17.6,12.4-19.3,25c-0.1,0.5-0.1,1.1-0.1,1.6c10.3,6.7,22.6,10.6,35.8,10.6C140.2,167.5,157.7,159.1,169.7,145.7z"/>
</svg>
