<?xml version="1.0" encoding="utf-8"?>
<!-- Generator: Adobe Illustrator 19.0.0, SVG Export Plug-In . SVG Version: 6.00 Build 0)  -->
<svg version="1.1" id="Слой_1" xmlns="http://www.w3.org/2000/svg" xmlns:xlink="http://www.w3.org/1999/xlink" x="0px" y="0px"
	 viewBox="-138.6 332.6 116.8 131.9" style="enable-background:new -138.6 332.6 116.8 131.9;" xml:space="preserve">
<style type="text/css">
	.st0{fill:url(#SVGID_1_);}
	.st1{fill:url(#SVGID_2_);}
	.st2{fill:url(#SVGID_3_);}
</style>
<g>
	
		<linearGradient id="SVGID_1_" gradientUnits="userSpaceOnUse" x1="-138.6" y1="402.8" x2="-21.8" y2="402.8" gradientTransform="matrix(1 0 0 -1 0 796)">
		<stop  offset="0" style="stop-color:#8BBAB6"/>
		<stop  offset="1" style="stop-color:#A5BBF3"/>
	</linearGradient>
	<path class="st0" d="M-89.1,427.2c-10-5.7-16.7-16.4-16.7-28.7c0-18.3,14.8-33.1,33.1-33.1c11.8,0,22.1,6.2,28,15.4
		c4.6-10.5,12.7-19.1,22.9-24.1c-12.1-14.7-30.4-24.1-50.9-24.1c-36.4,0-65.9,29.5-65.9,65.9c0,23.2,12,43.6,30.1,55.3
		c0-0.5,0.1-1,0.1-1.6C-106.8,439.6-96.4,431.4-89.1,427.2z"/>
	
		<linearGradient id="SVGID_2_" gradientUnits="userSpaceOnUse" x1="-93.0496" y1="397.5" x2="-52.3977" y2="397.5" gradientTransform="matrix(1 0 0 -1 0 796)">
		<stop  offset="0.4049" style="stop-color:#3C5580"/>
		<stop  offset="0.5906" style="stop-color:#3E5A80"/>
		<stop  offset="0.8045" style="stop-color:#456880"/>
		<stop  offset="1" style="stop-color:#4E7B81"/>
	</linearGradient>
	<circle class="st1" cx="-72.7" cy="398.5" r="20.3"/>
	
		<linearGradient id="SVGID_3_" gradientUnits="userSpaceOnUse" x1="-108" y1="355" x2="-23.3" y2="355" gradientTransform="matrix(1 0 0 -1 0 796)">
		<stop  offset="0.4049" style="stop-color:#3C5580"/>
		<stop  offset="0.5906" style="stop-color:#3E5A80"/>
		<stop  offset="0.8045" style="stop-color:#456880"/>
		<stop  offset="1" style="stop-color:#4E7B81"/>
	</linearGradient>
	<path class="st2" d="M-23.3,442.7c-9.9-5.5-17.7-14.4-21.8-25.2c-6,8.6-15.9,14.2-27.1,14.2c-6,0-11.6-1.6-16.4-4.4
		c-7.2,4.3-17.6,12.4-19.3,25c-0.1,0.5-0.1,1.1-0.1,1.6c10.3,6.7,22.6,10.6,35.8,10.6C-52.8,464.5-35.3,456.1-23.3,442.7z"/>
</g>
</svg>
