<?xml version="1.0" encoding="UTF-8" standalone="no"?>
<!DOCTYPE svg PUBLIC "-//W3C//DTD SVG 1.1//EN" "http://www.w3.org/Graphics/SVG/1.1/DTD/svg11.dtd">
<svg width="100%" height="100%" viewBox="0 0 70 70" version="1.1" xmlns="http://www.w3.org/2000/svg" xmlns:xlink="http://www.w3.org/1999/xlink" xml:space="preserve" xmlns:serif="http://www.serif.com/" style="fill-rule:evenodd;clip-rule:evenodd;stroke-linejoin:round;stroke-miterlimit:2;">
    <g id="Слой-1" serif:id="Слой 1" transform="matrix(1,0,0,1,-12,-9)">
        <g transform="matrix(0,-1,-1,0,46.9351,30.419)">
            <path d="M-13.372,-13.372C-20.757,-13.372 -26.744,-7.385 -26.744,0C-26.744,7.385 -20.757,13.372 -13.372,13.372C-5.987,13.372 0,7.385 0,0C0,-7.385 -5.987,-13.372 -13.372,-13.372" style="fill:rgb(35,132,185);fill-rule:nonzero;"/>
        </g>
        <g transform="matrix(1,0,0,1,47.0083,72.3434)">
            <path d="M0,-6.193C-4.947,-6.193 -9.516,-7.802 -13.219,-10.522C-15.755,-8 -17.52,-4.755 -18.152,-1.137C-12.95,2.314 -6.711,4.329 0,4.329C6.711,4.329 12.95,2.314 18.152,-1.137C17.521,-4.755 15.755,-8 13.219,-10.522C9.516,-7.802 4.947,-6.193 0,-6.193" style="fill:rgb(35,132,185);fill-rule:nonzero;"/>
        </g>
        <g transform="matrix(1,0,0,1,46.9355,71.2062)">
            <path d="M0,-60.297C-18.16,-60.297 -32.882,-45.575 -32.882,-27.415C-32.882,-15.966 -27.027,-5.889 -18.152,0C-17.521,-3.617 -15.755,-6.862 -13.219,-9.385C-18.761,-13.454 -22.36,-20.013 -22.36,-27.415C-22.36,-39.764 -12.349,-49.775 0,-49.775C6.841,-49.775 12.96,-46.699 17.062,-41.859L24.52,-49.317C18.498,-56.053 9.746,-60.297 0,-60.297" style="fill:rgb(4,39,89);fill-rule:nonzero;"/>
        </g>
        <g transform="matrix(-0.292757,0.956187,0.956187,0.292757,70.254,59.9033)">
            <path d="M4.877,-9.069C6.546,-5.905 9.134,-3.267 12.407,-1.604C10.114,0.28 7.578,1.843 4.877,3.047L-0.079,-6.284C1.682,-7 3.351,-7.932 4.877,-9.069" style="fill:rgb(4,39,89);fill-rule:nonzero;"/>
        </g>
    </g>
</svg>
